<svg width="32" height="37" viewBox="0 0 32 37" fill="none" xmlns="http://www.w3.org/2000/svg">
<g clip-path="url(#clip0_1168_370)">
<path d="M15.6645 0.0357134C15.886 -0.00714373 16.1145 -0.00714373 16.336 0.0357134L30.6217 2.89286C31.4217 3.05 32.0003 3.75714 32.0003 4.57143C32.0003 5.38571 31.4217 6.09286 30.6217 6.25L25.1431 7.35V11.4286C25.1431 16.4786 21.0503 20.5714 16.0002 20.5714C10.9503 20.5714 6.85739 16.4786 6.85739 11.4286V7.35L3.42882 6.66429V11.3143L4.55025 16.9143C4.61454 17.25 4.52882 17.6 4.31454 17.8643C4.10025 18.1286 3.77168 18.2857 3.42882 18.2857H1.14311C0.80025 18.2857 0.478821 18.1357 0.257393 17.8643C0.0359643 17.5929 -0.04975 17.25 0.0216786 16.9143L1.14311 11.3143V6.18571C0.464536 5.95 0.000249981 5.30714 0.000249981 4.57143C0.000249981 3.75714 0.578821 3.05 1.37882 2.89286L15.6645 0.0357134ZM7.99311 23.4071C8.74311 23.1643 9.55025 23.4357 10.0931 24.0143L15.1645 29.4071C15.6145 29.8857 16.3788 29.8857 16.8288 29.4071L21.9003 24.0143C22.4431 23.4357 23.2503 23.1643 24.0003 23.4071C28.6431 24.9 32.0003 29.2429 32.0003 34.3786C32.0003 35.5929 31.0145 36.5714 29.8074 36.5714H2.19311C0.985964 36.5714 0.000249981 35.5857 0.000249981 34.3786C0.000249981 29.2429 3.35739 24.9 7.99311 23.4071Z" fill="#29853a"/>
</g>
<defs>
<clipPath id="clip0_1168_370">
<rect width="32" height="36.5714" fill="white"/>
</clipPath>
</defs>
</svg>
